<svg id="Layer_1" data-name="Layer 1" xmlns="http://www.w3.org/2000/svg" viewBox="0 0 210.92 45.37"><defs><style>.cls-1{fill:#d81f31;}.cls-2{fill:#3b54a5;}</style></defs><title>logo</title><path class="cls-1" d="M57,56.5l-.86-.13c-1-.18-2.09-.36-3.13-.56-2.05-.37-4.08-.82-6.09-1.33a72,72,0,0,1-7-2.16,39.82,39.82,0,0,1-6.19-2.84,20.36,20.36,0,0,1-3.88-2.82,10.48,10.48,0,0,1-2-2.49A6.65,6.65,0,0,1,27,41.35a1.23,1.23,0,0,1,0-.13l-1-.22A27.75,27.75,0,0,1,20,39.06a12.94,12.94,0,0,1-3-1.88,5.93,5.93,0,0,1-1.54-1.91,3.47,3.47,0,0,1-.38-1.67,3.79,3.79,0,0,1,.62-1.9,6.57,6.57,0,0,1,1.43-1.59,13.46,13.46,0,0,1,3-1.83,26.41,26.41,0,0,1,4.65-1.62c.66-.16,1.32-.3,2-.45.16,0,.17,0,.18-.19a6.85,6.85,0,0,1,.95-2.73,11.16,11.16,0,0,1,2-2.4,20.53,20.53,0,0,1,3.76-2.71,39.9,39.9,0,0,1,6-2.8A70.87,70.87,0,0,1,47.39,13q3-.74,6-1.28c1.19-.22,2.39-.41,3.59-.62h.13l-.24.1a73.44,73.44,0,0,0-7,2.77,41.62,41.62,0,0,0-6.17,3.4,21.22,21.22,0,0,0-3.56,3,11.16,11.16,0,0,0-2.14,3.16,7.48,7.48,0,0,0-.63,3.23,7.66,7.66,0,0,0,.7,2.86.6.6,0,0,0,.06.11l.15-.05a67.86,67.86,0,0,1,8.26-3.1q4.48-1.38,9.07-2.34c1.64-.34,3.29-.64,4.93-1l1-.16a.12.12,0,0,1,.1,0l-.18.07c-2.8,1-5.57,2-8.27,3.22a57.37,57.37,0,0,0-7.13,3.71,30.56,30.56,0,0,0-4.37,3.22l-.48.44.17.17a27.18,27.18,0,0,0,3.5,2.73,51.84,51.84,0,0,0,7,3.86A98.38,98.38,0,0,0,61,44.3a2.07,2.07,0,0,1,.46.2l-.81-.14c-1.26-.23-2.52-.46-3.78-.71-2.7-.54-5.38-1.17-8-1.92A74.61,74.61,0,0,1,40.65,39c-.81-.33-1.61-.69-2.42-1L38,37.87c0,.06-.06.1-.08.15a7.35,7.35,0,0,0,.24,6.66,12.17,12.17,0,0,0,2.09,2.8,22.7,22.7,0,0,0,4.19,3.31,46.25,46.25,0,0,0,6.28,3.28c2,.86,4,1.62,6,2.31l.25.09ZM31.24,33.81l-.15-.13L30.25,33A12.48,12.48,0,0,1,28,30.24a7.1,7.1,0,0,1-1-3c0-.09,0-.18,0-.29l-.12.06a14.13,14.13,0,0,0-2.73,2.05,8.14,8.14,0,0,0-1.57,2.08,5.31,5.31,0,0,0-.39,4.18,6.86,6.86,0,0,0,1.47,2.48,12.85,12.85,0,0,0,3.27,2.59s.05,0,.1,0l0-.18c0-.22.07-.44.11-.66a7.9,7.9,0,0,1,1.27-2.78A14.41,14.41,0,0,1,31.07,34,1.14,1.14,0,0,0,31.24,33.81Z" transform="translate(-15.11 -11.13)"/><path class="cls-1" d="M73.33,37.84a1.51,1.51,0,0,0,0-.31c0-.32,0-.67,0-.67h2.94A2.15,2.15,0,0,1,76.53,38a2.27,2.27,0,0,1,0,.43A3.16,3.16,0,0,1,73.09,41H67.87c-2,0-2.91-.59-2.91-2.09a7.59,7.59,0,0,1,.17-1.39L68,24h3.7l-2.78,13a2.89,2.89,0,0,0-.09.69c0,.52.28.61,1.13.61h2.39C73,38.38,73.27,38.16,73.33,37.84Z" transform="translate(-15.11 -11.13)"/><path class="cls-1" d="M91.83,27.51,94,41H90.05l-.37-3.48H82.33L80.48,41H76.57l7.87-13.48c1.59-2.65,2.91-3.7,4.48-3.7S91.37,24.86,91.83,27.51Zm-3.11,1.3s-.11-1.52-.54-1.52S87,28.81,87,28.81L83.74,34.9H89.4Z" transform="translate(-15.11 -11.13)"/><path class="cls-1" d="M112.9,28.92a6.22,6.22,0,0,1-.16,1.41l-.95,4.57c-.85,4-4.5,6.52-9,6.52-3.93,0-6.37-2-6.37-5.08a6.68,6.68,0,0,1,.16-1.44l1-4.57a9,9,0,0,1,9-6.74C110.5,23.59,112.9,25.81,112.9,28.92Zm-11.68,1.41-1,4.57a5,5,0,0,0-.13,1c0,1.68,1.11,2.68,3.24,2.68a4.49,4.49,0,0,0,4.72-3.7l1-4.57a5.74,5.74,0,0,0,.13-1.1c0-1.85-1.22-2.81-3.22-2.81A4.58,4.58,0,0,0,101.22,30.33Z" transform="translate(-15.11 -11.13)"/><path class="cls-2" d="M128.33,41.42c-3.59,0-6.55-1.43-6.55-4.06a3.46,3.46,0,0,1,.09-.83A6.17,6.17,0,0,1,123,34.25l3.78,1.09a2.09,2.09,0,0,0-.78,1.19,2.35,2.35,0,0,0,0,.35c0,1.15,1.32,1.72,3,1.72,2.13,0,3.74-.7,4-2a3.15,3.15,0,0,0,0-.41c0-1.15-1.13-1.81-3.15-2.42s-5.94-1.19-5.94-4.32a3.9,3.9,0,0,1,.09-.89c.48-2.27,3.5-5,8-5,4.07,0,6,2.22,6,4.31a3.33,3.33,0,0,1-.07.7H134.2a2.2,2.2,0,0,0,.06-.5c0-1.22-1.11-1.9-2.8-1.9-1.92,0-3.48,1-3.74,2.18a.74.74,0,0,0,0,.26c0,1,1.48,1.28,3.27,1.91,2.48.89,5.85,1.59,5.85,4.74a5.94,5.94,0,0,1-.13,1.13C136,39.51,132.81,41.42,128.33,41.42Z" transform="translate(-15.11 -11.13)"/><path class="cls-2" d="M145.61,24l-1.5,7c3.32-3.09,6.08-5.37,7.37-7h4.35c-2.2,2.15-8.74,7.83-8.74,7.83A46.14,46.14,0,0,1,152.87,41h-4.35a36.61,36.61,0,0,0-4.78-8.15L142,41h-3.48l3.61-17Z" transform="translate(-15.11 -11.13)"/><path class="cls-2" d="M160.71,24l1.44,6.52s.19,1.2.5,1.2,1-1.2,1-1.2L167.89,24h3.8s-5.28,7.72-6,8.7a7.7,7.7,0,0,1-1.93,1.93L162.43,41H159l1.35-6.33a4.42,4.42,0,0,1-1.11-1.93c-.3-1-2.28-8.7-2.28-8.7Z" transform="translate(-15.11 -11.13)"/><path class="cls-2" d="M176.26,24l.36,12.61c0,.59,0,1.09.2,1.09s.31-.33.67-1.09L182.78,24h3l-.06,12.61v.76c0,.22,0,.33.19.33s.39-.5.68-1.09L192.35,24H196l-7.11,15a3.67,3.67,0,0,1-3.5,2.18A2.25,2.25,0,0,1,183.06,39l0-9.13L179.15,39a3.76,3.76,0,0,1-3.29,2.18c-1.41,0-2.5-.61-2.58-2.18l-.72-15Z" transform="translate(-15.11 -11.13)"/><path class="cls-2" d="M206.82,27.51,209,41H205l-.37-3.48h-7.35L195.47,41h-3.91l7.87-13.48c1.58-2.65,2.91-3.7,4.48-3.7S206.36,24.86,206.82,27.51Zm-3.11,1.3s-.11-1.52-.54-1.52-1.2,1.52-1.2,1.52l-3.24,6.09h5.65Z" transform="translate(-15.11 -11.13)"/><path class="cls-2" d="M215.06,24l1.43,6.52s.2,1.2.5,1.2,1-1.2,1-1.2L222.23,24H226s-5.29,7.72-6,8.7a7.73,7.73,0,0,1-1.94,1.93L216.77,41H213.3l1.34-6.33a4.42,4.42,0,0,1-1.11-1.93c-.3-1-2.28-8.7-2.28-8.7Z" transform="translate(-15.11 -11.13)"/></svg>