<svg id="Layer_1" data-name="Layer 1" xmlns="http://www.w3.org/2000/svg" viewBox="0 0 46.4 45.37"><defs><style>.cls-1{fill:#d81f31;}</style></defs><title>logo001</title><path class="cls-1" d="M57,56.5l-.86-.13c-1-.18-2.09-.36-3.13-.56-2.05-.37-4.08-.82-6.09-1.33a72,72,0,0,1-7-2.16,39.82,39.82,0,0,1-6.19-2.84,20.36,20.36,0,0,1-3.88-2.82,10.48,10.48,0,0,1-2-2.49A6.65,6.65,0,0,1,27,41.35a1.23,1.23,0,0,1,0-.13l-1-.22A27.75,27.75,0,0,1,20,39.06a12.94,12.94,0,0,1-3-1.88,5.93,5.93,0,0,1-1.54-1.91,3.47,3.47,0,0,1-.38-1.67,3.79,3.79,0,0,1,.62-1.9,6.57,6.57,0,0,1,1.43-1.59,13.46,13.46,0,0,1,3-1.83,26.41,26.41,0,0,1,4.65-1.62c.66-.16,1.32-.3,2-.45.16,0,.17,0,.18-.19a6.85,6.85,0,0,1,.95-2.73,11.16,11.16,0,0,1,2-2.4,20.53,20.53,0,0,1,3.76-2.71,39.9,39.9,0,0,1,6-2.8A70.87,70.87,0,0,1,47.39,13q3-.74,6-1.28c1.19-.22,2.39-.41,3.59-.62h.13l-.24.1a73.44,73.44,0,0,0-7,2.77,41.62,41.62,0,0,0-6.17,3.4,21.22,21.22,0,0,0-3.56,3,11.16,11.16,0,0,0-2.14,3.16,7.48,7.48,0,0,0-.63,3.23,7.66,7.66,0,0,0,.7,2.86.6.6,0,0,0,.06.11l.15-.05a67.86,67.86,0,0,1,8.26-3.1q4.48-1.38,9.07-2.34c1.64-.34,3.29-.64,4.93-1l1-.16a.12.12,0,0,1,.1,0l-.18.07c-2.8,1-5.57,2-8.27,3.22a57.37,57.37,0,0,0-7.13,3.71,30.56,30.56,0,0,0-4.37,3.22l-.48.44.17.17a27.18,27.18,0,0,0,3.5,2.73,51.84,51.84,0,0,0,7,3.86A98.38,98.38,0,0,0,61,44.3a2.07,2.07,0,0,1,.46.2l-.81-.14c-1.26-.23-2.52-.46-3.78-.71-2.7-.54-5.38-1.17-8-1.92A74.61,74.61,0,0,1,40.65,39c-.81-.33-1.61-.69-2.42-1L38,37.87c0,.06-.06.1-.08.15a7.35,7.35,0,0,0,.24,6.66,12.17,12.17,0,0,0,2.09,2.8,22.7,22.7,0,0,0,4.19,3.31,46.25,46.25,0,0,0,6.28,3.28c2,.86,4,1.62,6,2.31l.25.09ZM31.24,33.81l-.15-.13L30.25,33A12.48,12.48,0,0,1,28,30.24a7.1,7.1,0,0,1-1-3c0-.09,0-.18,0-.29l-.12.06a14.13,14.13,0,0,0-2.73,2.05,8.14,8.14,0,0,0-1.57,2.08,5.31,5.31,0,0,0-.39,4.18,6.86,6.86,0,0,0,1.47,2.48,12.85,12.85,0,0,0,3.27,2.59s.05,0,.1,0l0-.18c0-.22.07-.44.11-.66a7.9,7.9,0,0,1,1.27-2.78A14.41,14.41,0,0,1,31.07,34,1.14,1.14,0,0,0,31.24,33.81Z" transform="translate(-15.11 -11.13)"/></svg>